<svg width="1180" height="610" viewBox="0 0 1180 610" xmlns="http://www.w3.org/2000/svg" xmlns:xlink="http://www.w3.org/1999/xlink">
<defs>
  <clipPath id="canvasClip"><rect x="0" y="0" width="1180" height="610" rx="26"/></clipPath>
  <clipPath id="leftClip"><rect x="24" y="24" width="404" height="562" rx="20"/></clipPath>
  <clipPath id="rightClip"><rect x="452" y="24" width="704" height="562" rx="20"/></clipPath>

  <radialGradient id="glowViolet" cx="50%" cy="50%" r="50%">
    <stop offset="0%" stop-color="#2563EB" stop-opacity="0.16"/>
    <stop offset="100%" stop-color="#2563EB" stop-opacity="0"/>
  </radialGradient>
  <radialGradient id="glowCyan" cx="50%" cy="50%" r="50%">
    <stop offset="0%" stop-color="#06B6D4" stop-opacity="0.14"/>
    <stop offset="100%" stop-color="#06B6D4" stop-opacity="0"/>
  </radialGradient>
  <radialGradient id="glowEmerald" cx="50%" cy="50%" r="50%">
    <stop offset="0%" stop-color="#10B981" stop-opacity="0.12"/>
    <stop offset="100%" stop-color="#10B981" stop-opacity="0"/>
  </radialGradient>

  <linearGradient id="accentGrad" x1="0%" y1="0%" x2="100%" y2="0%">
    <stop offset="0%" stop-color="#2563EB">
      <animate attributeName="stop-color" values="#2563EB;#06B6D4;#10B981;#2563EB" dur="6s" repeatCount="indefinite"/>
    </stop>
    <stop offset="50%" stop-color="#06B6D4">
      <animate attributeName="stop-color" values="#06B6D4;#10B981;#2563EB;#06B6D4" dur="6s" repeatCount="indefinite"/>
    </stop>
    <stop offset="100%" stop-color="#10B981">
      <animate attributeName="stop-color" values="#10B981;#2563EB;#06B6D4;#10B981" dur="6s" repeatCount="indefinite"/>
    </stop>
  </linearGradient>

  <linearGradient id="asciiGrad" x1="0%" y1="0%" x2="100%" y2="100%">
    <stop offset="0%" stop-color="#06B6D4">
      <animate attributeName="stop-color" values="#2563EB;#06B6D4;#2563EB" dur="5s" repeatCount="indefinite"/>
    </stop>
    <stop offset="100%" stop-color="#2563EB">
      <animate attributeName="stop-color" values="#06B6D4;#2563EB;#06B6D4" dur="5s" repeatCount="indefinite"/>
    </stop>
  </linearGradient>

  <linearGradient id="borderShimmer" x1="0%" y1="0%" x2="100%" y2="0%">
    <stop offset="0%" stop-color="rgba(15,23,42,0)"/>
    <stop offset="50%" stop-color="rgba(15,23,42,0.28)"/>
    <stop offset="100%" stop-color="rgba(15,23,42,0)">
      <animate attributeName="offset" values="0;1" dur="0" begin="0"/>
    </stop>
    <animateTransform attributeName="gradientTransform" type="translate" from="-1200 0" to="1200 0" dur="4s" repeatCount="indefinite"/>
  </linearGradient>

  <linearGradient id="panelFill" x1="0%" y1="0%" x2="100%" y2="100%">
    <stop offset="0%" stop-color="#F8FAFC" stop-opacity="0.9"/>
    <stop offset="100%" stop-color="#F8FAFC" stop-opacity="0.75"/>
  </linearGradient>

  <filter id="softGlow" x="-60%" y="-60%" width="220%" height="220%">
    <feGaussianBlur stdDeviation="4" result="b"/>
    <feMerge><feMergeNode in="b"/><feMergeNode in="SourceGraphic"/></feMerge>
  </filter>
  <filter id="bigGlow" x="-100%" y="-100%" width="300%" height="300%">
    <feGaussianBlur stdDeviation="14" result="b"/>
    <feMerge><feMergeNode in="b"/><feMergeNode in="SourceGraphic"/></feMerge>
  </filter>
  <filter id="noiseF" x="0" y="0" width="100%" height="100%">
    <feTurbulence type="fractalNoise" baseFrequency="0.85" numOctaves="2" stitchTiles="stitch" result="n"/>
    <feColorMatrix in="n" type="matrix" values="0 0 0 0 0  0 0 0 0 0  0 0 0 0 0  0 0 0 0.015 0"/>
  </filter>

  <mask id="scanMask">
    <rect x="0" y="0" width="1180" height="610" fill="white"/>
  </mask>
</defs>

<g clip-path="url(#canvasClip)">
  <rect x="0" y="0" width="1180" height="610" fill="#FFFFFF"/>
  <rect width="1180" height="610" filter="url(#noiseF)" opacity="0.35"/>

  <circle cx="120" cy="80" r="260" fill="url(#glowViolet)">
    <animateTransform attributeName="transform" type="translate" values="0 0; 40 30; 0 0" dur="12s" repeatCount="indefinite"/>
  </circle>
  <circle cx="1040" cy="140" r="280" fill="url(#glowCyan)">
    <animateTransform attributeName="transform" type="translate" values="0 0; -30 40; 0 0" dur="14s" repeatCount="indefinite"/>
  </circle>
  <circle cx="600" cy="560" r="300" fill="url(#glowEmerald)">
    <animateTransform attributeName="transform" type="translate" values="0 0; 20 -30; 0 0" dur="16s" repeatCount="indefinite"/>
  </circle>

  <g opacity="0.5">
    <circle cx="150" cy="500" r="1.6" fill="#06B6D4"><animate attributeName="cy" values="500;60;500" dur="18s" repeatCount="indefinite"/><animate attributeName="opacity" values="0;0.8;0" dur="18s" repeatCount="indefinite"/></circle>
    <circle cx="330" cy="560" r="1.2" fill="#2563EB"><animate attributeName="cy" values="560;40;560" dur="22s" repeatCount="indefinite"/><animate attributeName="opacity" values="0;0.7;0" dur="22s" repeatCount="indefinite"/></circle>
    <circle cx="900" cy="520" r="1.8" fill="#10B981"><animate attributeName="cy" values="520;30;520" dur="20s" repeatCount="indefinite"/><animate attributeName="opacity" values="0;0.7;0" dur="20s" repeatCount="indefinite"/></circle>
    <circle cx="1050" cy="480" r="1.3" fill="#06B6D4"><animate attributeName="cy" values="480;50;480" dur="16s" repeatCount="indefinite"/><animate attributeName="opacity" values="0;0.6;0" dur="16s" repeatCount="indefinite"/></circle>
    <circle cx="720" cy="540" r="1.4" fill="#2563EB"><animate attributeName="cy" values="540;20;540" dur="24s" repeatCount="indefinite"/><animate attributeName="opacity" values="0;0.6;0" dur="24s" repeatCount="indefinite"/></circle>
  </g>

  <rect x="0" y="0" width="1180" height="2" fill="url(#accentGrad)" opacity="0.45">
    <animate attributeName="y" values="0;608;0" dur="9s" repeatCount="indefinite"/>
    <animate attributeName="opacity" values="0;0.6;0" dur="9s" repeatCount="indefinite"/>
  </rect>

  <!-- ================= LEFT PANEL ================= -->
  <g>
    <rect x="24" y="24" width="404" height="562" rx="20" fill="url(#panelFill)" stroke="rgba(15,23,42,0.08)" stroke-width="1"/>
    <rect x="24" y="24" width="404" height="562" rx="20" fill="none" stroke="url(#borderShimmer)" stroke-width="1.4" opacity="0.8"/>
    <rect x="26" y="26" width="400" height="120" rx="18" fill="#0F172A" opacity="0.025"/>

    <g clip-path="url(#leftClip)">
      <rect x="24" y="70" width="404" height="2" fill="#06B6D4" opacity="0.35">
        <animate attributeName="y" values="70;560;70" dur="6s" repeatCount="indefinite"/>
        <animate attributeName="opacity" values="0.5;0.05;0.5" dur="6s" repeatCount="indefinite"/>
      </rect>
    </g>

    <g font-family="'SFMono-Regular', Consolas, 'Liberation Mono', Menlo, monospace" font-size="14" fill="url(#asciiGrad)" font-weight="600">
      <g transform="translate(226,175)">
        <animateTransform attributeName="transform" type="translate" values="226,175; 226,167; 226,175" dur="5s" repeatCount="indefinite" additive="sum"/>
        <text text-anchor="middle" x="0" y="0"   opacity="0"><animate attributeName="opacity" values="0;1" begin="0.2s" dur="0.3s" fill="freeze"/>╔═══════════════════╗</text>
        <text text-anchor="middle" x="0" y="20"  opacity="0"><animate attributeName="opacity" values="0;1" begin="0.5s" dur="0.3s" fill="freeze"/>║  &lt; SYSTEM.INIT /&gt;  ║</text>
        <text text-anchor="middle" x="0" y="40"  opacity="0"><animate attributeName="opacity" values="0;1" begin="0.8s" dur="0.3s" fill="freeze"/>╠═══════════════════╣</text>
        <text text-anchor="middle" x="0" y="60"  opacity="0"><animate attributeName="opacity" values="0;1" begin="1.1s" dur="0.3s" fill="freeze"/>║      ▄▄▄▄▄▄▄       ║</text>
        <text text-anchor="middle" x="0" y="80"  opacity="0"><animate attributeName="opacity" values="0;1" begin="1.4s" dur="0.3s" fill="freeze"/>║    ▄█████████▄     ║</text>
        <text text-anchor="middle" x="0" y="100" opacity="0"><animate attributeName="opacity" values="0;1" begin="1.7s" dur="0.3s" fill="freeze"/>║   ██▀▀   ▀▀██     ║</text>
        <text text-anchor="middle" x="0" y="120" opacity="0"><animate attributeName="opacity" values="0;1" begin="2.0s" dur="0.3s" fill="freeze"/>║   ██  ◉ ◉  ██     ║</text>
        <text text-anchor="middle" x="0" y="140" opacity="0"><animate attributeName="opacity" values="0;1" begin="2.3s" dur="0.3s" fill="freeze"/>║   ██   ▽   ██     ║</text>
        <text text-anchor="middle" x="0" y="160" opacity="0"><animate attributeName="opacity" values="0;1" begin="2.6s" dur="0.3s" fill="freeze"/>║   ▀██▄▄▄▄▄██▀     ║</text>
        <text text-anchor="middle" x="0" y="180" opacity="0"><animate attributeName="opacity" values="0;1" begin="2.9s" dur="0.3s" fill="freeze"/>║     ▀▀▀▀▀▀▀       ║</text>
        <text text-anchor="middle" x="0" y="200" opacity="0"><animate attributeName="opacity" values="0;1" begin="3.2s" dur="0.3s" fill="freeze"/>╠═══════════════════╣</text>
        <text text-anchor="middle" x="0" y="220" opacity="0"><animate attributeName="opacity" values="0;1" begin="3.5s" dur="0.3s" fill="freeze"/>║ IZHAN.exe RUNNING  ║</text>
        <text text-anchor="middle" x="0" y="240" opacity="0"><animate attributeName="opacity" values="0;1" begin="3.8s" dur="0.3s" fill="freeze"/>║ STATUS: ONLINE ●   ║</text>
        <text text-anchor="middle" x="0" y="260" opacity="0"><animate attributeName="opacity" values="0;1" begin="4.1s" dur="0.3s" fill="freeze"/>╚═══════════════════╝</text>
      </g>
    </g>

    <g font-family="'SFMono-Regular', Consolas, monospace" font-size="12" fill="#94A3B8">
      <text x="226" y="480" text-anchor="middle" opacity="0"><animate attributeName="opacity" values="0;1" begin="4.4s" dur="0.4s" fill="freeze"/>~/portfolio $ whoami</text>
      <text x="226" y="500" text-anchor="middle" fill="url(#asciiGrad)" font-weight="700" opacity="0"><animate attributeName="opacity" values="0;1" begin="4.7s" dur="0.4s" fill="freeze"/>mohammed_izhan</text>
      <rect x="290" y="490" width="8" height="14" fill="#06B6D4" opacity="0">
        <animate attributeName="opacity" values="0;1" begin="4.7s" dur="0.4s" fill="freeze"/>
        <animate attributeName="opacity" values="1;0;1" begin="5.1s" dur="1s" repeatCount="indefinite"/>
      </rect>
    </g>

    <text x="226" y="560" text-anchor="middle" font-family="'SFMono-Regular', Consolas, monospace" font-size="11" fill="#475569" opacity="0">
      <animate attributeName="opacity" values="0;1" begin="5s" dur="0.6s" fill="freeze"/>
      SOFTWARE ENGINEER · VELLORE, IN
    </text>
  </g>

  <!-- ================= RIGHT PANEL ================= -->
  <g>
    <rect x="452" y="24" width="704" height="562" rx="20" fill="url(#panelFill)" stroke="rgba(15,23,42,0.08)" stroke-width="1"/>
    <rect x="452" y="24" width="704" height="562" rx="20" fill="none" stroke="url(#borderShimmer)" stroke-width="1.4" opacity="0.8"/>
    <rect x="454" y="26" width="700" height="120" rx="18" fill="#0F172A" opacity="0.02"/>

    <!-- terminal titlebar -->
    <rect x="452" y="24" width="704" height="40" rx="20" fill="rgba(15,23,42,0.025)"/>
    <rect x="452" y="44" width="704" height="20" fill="rgba(15,23,42,0.025)"/>
    <circle cx="482" cy="44" r="6" fill="#FF5F57"/>
    <circle cx="504" cy="44" r="6" fill="#FEBC2E"/>
    <circle cx="526" cy="44" r="6" fill="#28C840"/>
    <text x="804" y="49" text-anchor="middle" font-family="'SFMono-Regular', Consolas, monospace" font-size="12" fill="#94A3B8">izhan@dev — zsh — 88x24</text>

    <g clip-path="url(#rightClip)" font-family="'SFMono-Regular', Consolas, monospace">
      <!-- greeting -->
      <g>
        <clipPath id="clipGreet"><rect x="0" y="0" width="0" height="40"><animate attributeName="width" values="0;520" begin="0.3s" dur="1s" fill="freeze" calcMode="spline" keySplines="0.2 0 0.2 1"/></rect></clipPath>
        <g clip-path="url(#clipGreet)">
          <text x="484" y="105" font-size="27" font-weight="700" fill="#0F172A">Hi <tspan fill="url(#accentGrad)">👋</tspan>, I'm <tspan fill="url(#accentGrad)">Mohammed Izhan I</tspan></text>
        </g>
        <rect x="1004" y="86" width="10" height="22" fill="#06B6D4" opacity="0">
          <animate attributeName="opacity" values="0;1" begin="1.3s" dur="0.2s" fill="freeze"/>
          <animate attributeName="opacity" values="1;0;1" begin="1.5s" dur="0.9s" repeatCount="indefinite"/>
        </rect>
      </g>

      <!-- typed role -->
      <g font-size="18" fill="#475569" font-weight="500">
        <text x="484" y="140" opacity="0">
          <animate attributeName="opacity" values="0;1;1;0" keyTimes="0;0.02;0.23;0.25" dur="9s" begin="1.6s" repeatCount="indefinite"/>
          &gt; Frontend Engineer
        </text>
        <text x="484" y="140" opacity="0">
          <animate attributeName="opacity" values="0;0;1;1;0" keyTimes="0;0.25;0.27;0.48;0.5" dur="9s" begin="1.6s" repeatCount="indefinite"/>
          &gt; Full Stack Developer
        </text>
        <text x="484" y="140" opacity="0">
          <animate attributeName="opacity" values="0;0;1;1;0" keyTimes="0;0.5;0.52;0.73;0.75" dur="9s" begin="1.6s" repeatCount="indefinite"/>
          &gt; Backend Engineer · Spring Boot
        </text>
        <text x="484" y="140" opacity="0">
          <animate attributeName="opacity" values="0;0;1;1" keyTimes="0;0.75;0.77;1" dur="9s" begin="1.6s" repeatCount="indefinite"/>
          &gt; AI/ML Enthusiast
        </text>
      </g>
      <rect x="720" y="126" width="9" height="18" fill="#2563EB" opacity="0.9">
        <animate attributeName="opacity" values="1;0;1" begin="1.6s" dur="0.9s" repeatCount="indefinite"/>
      </rect>

      <!-- info rows -->
      <g font-size="14" fill="#334155">
        <g opacity="0"><animate attributeName="opacity" values="0;1" begin="2.0s" dur="0.4s" fill="freeze"/>
          <circle cx="490" cy="187" r="3" fill="#06B6D4"/>
          <text x="502" y="192"><tspan fill="#94A3B8">Location   </tspan>  Vellore, Tamil Nadu, India</text>
        </g>
        <g opacity="0"><animate attributeName="opacity" values="0;1" begin="2.3s" dur="0.4s" fill="freeze"/>
          <circle cx="490" cy="213" r="3" fill="#2563EB"/>
          <text x="502" y="218"><tspan fill="#94A3B8">Education  </tspan>  M.Tech ISE, VIT Vellore (2027)</text>
        </g>
        <g opacity="0"><animate attributeName="opacity" values="0;1" begin="2.6s" dur="0.4s" fill="freeze"/>
          <circle cx="490" cy="239" r="3" fill="#10B981"/>
          <text x="502" y="244"><tspan fill="#94A3B8">Focus      </tspan>  Full-Stack &amp; Backend Systems</text>
        </g>
        <g opacity="0"><animate attributeName="opacity" values="0;1" begin="2.9s" dur="0.4s" fill="freeze"/>
          <circle cx="490" cy="265" r="3" fill="#06B6D4"/>
          <text x="502" y="270"><tspan fill="#94A3B8">Portfolio  </tspan>  izhan-portfolio-vert.vercel.app</text>
        </g>
        <g opacity="0"><animate attributeName="opacity" values="0;1" begin="3.2s" dur="0.4s" fill="freeze"/>
          <circle cx="490" cy="291" r="3" fill="#2563EB"/>
          <text x="502" y="296"><tspan fill="#94A3B8">Email      </tspan>  izhanmohammed08@gmail.com</text>
        </g>
      </g>

      <!-- skills -->
      <text x="484" y="336" font-size="13" fill="#94A3B8" letter-spacing="2" opacity="0">
        <animate attributeName="opacity" values="0;1" begin="3.6s" dur="0.4s" fill="freeze"/>
        TECH STACK
      </text>

      <g font-size="13" font-weight="600">
        <!-- row 1 -->
        <g transform="translate(484,352)">
          <g opacity="0"><animate attributeName="opacity" values="0;1" begin="3.7s" dur="0.3s" fill="freeze"/>
            <rect width="66" height="30" rx="15" fill="rgba(37,99,235,0.08)" stroke="#2563EB" stroke-width="1" filter="url(#softGlow)"><animate attributeName="stroke-opacity" values="0.4;1;0.4" dur="3s" begin="0s" repeatCount="indefinite"/></rect>
            <text x="33" y="20" text-anchor="middle" fill="#4338CA">React</text>
          </g>
        </g>
        <g transform="translate(560,352)">
          <g opacity="0"><animate attributeName="opacity" values="0;1" begin="3.75s" dur="0.3s" fill="freeze"/>
            <rect width="78" height="30" rx="15" fill="rgba(6,182,212,0.08)" stroke="#06B6D4" stroke-width="1" filter="url(#softGlow)"><animate attributeName="stroke-opacity" values="0.4;1;0.4" dur="3s" begin="0.3s" repeatCount="indefinite"/></rect>
            <text x="39" y="20" text-anchor="middle" fill="#0E7490">Next.js</text>
          </g>
        </g>
        <g transform="translate(648,352)">
          <g opacity="0"><animate attributeName="opacity" values="0;1" begin="3.8s" dur="0.3s" fill="freeze"/>
            <rect width="82" height="30" rx="15" fill="rgba(16,185,129,0.08)" stroke="#10B981" stroke-width="1" filter="url(#softGlow)"><animate attributeName="stroke-opacity" values="0.4;1;0.4" dur="3s" begin="0.6s" repeatCount="indefinite"/></rect>
            <text x="41" y="20" text-anchor="middle" fill="#047857">Node.js</text>
          </g>
        </g>
        <g transform="translate(740,352)">
          <g opacity="0"><animate attributeName="opacity" values="0;1" begin="3.85s" dur="0.3s" fill="freeze"/>
            <rect width="100" height="30" rx="15" fill="rgba(37,99,235,0.08)" stroke="#2563EB" stroke-width="1" filter="url(#softGlow)"><animate attributeName="stroke-opacity" values="0.4;1;0.4" dur="3s" begin="0.9s" repeatCount="indefinite"/></rect>
            <text x="50" y="20" text-anchor="middle" fill="#4338CA">TypeScript</text>
          </g>
        </g>
        <g transform="translate(850,352)">
          <g opacity="0"><animate attributeName="opacity" values="0;1" begin="3.9s" dur="0.3s" fill="freeze"/>
            <rect width="88" height="30" rx="15" fill="rgba(6,182,212,0.08)" stroke="#06B6D4" stroke-width="1" filter="url(#softGlow)"><animate attributeName="stroke-opacity" values="0.4;1;0.4" dur="3s" begin="1.2s" repeatCount="indefinite"/></rect>
            <text x="44" y="20" text-anchor="middle" fill="#0E7490">Tailwind</text>
          </g>
        </g>
        <g transform="translate(948,352)">
          <g opacity="0"><animate attributeName="opacity" values="0;1" begin="3.95s" dur="0.3s" fill="freeze"/>
            <rect width="78" height="30" rx="15" fill="rgba(16,185,129,0.08)" stroke="#10B981" stroke-width="1" filter="url(#softGlow)"><animate attributeName="stroke-opacity" values="0.4;1;0.4" dur="3s" begin="1.5s" repeatCount="indefinite"/></rect>
            <text x="39" y="20" text-anchor="middle" fill="#047857">Python</text>
          </g>
        </g>

        <!-- row 2 -->
        <g transform="translate(484,394)">
          <g opacity="0"><animate attributeName="opacity" values="0;1" begin="4.0s" dur="0.3s" fill="freeze"/>
            <rect width="76" height="30" rx="15" fill="rgba(37,99,235,0.08)" stroke="#2563EB" stroke-width="1" filter="url(#softGlow)"><animate attributeName="stroke-opacity" values="0.4;1;0.4" dur="3s" begin="1.8s" repeatCount="indefinite"/></rect>
            <text x="38" y="20" text-anchor="middle" fill="#4338CA">Docker</text>
          </g>
        </g>
        <g transform="translate(570,394)">
          <g opacity="0"><animate attributeName="opacity" values="0;1" begin="4.05s" dur="0.3s" fill="freeze"/>
            <rect width="92" height="30" rx="15" fill="rgba(6,182,212,0.08)" stroke="#06B6D4" stroke-width="1" filter="url(#softGlow)"><animate attributeName="stroke-opacity" values="0.4;1;0.4" dur="3s" begin="2.1s" repeatCount="indefinite"/></rect>
            <text x="46" y="20" text-anchor="middle" fill="#0E7490">PostgreSQL</text>
          </g>
        </g>
        <g transform="translate(672,394)">
          <g opacity="0"><animate attributeName="opacity" values="0;1" begin="4.1s" dur="0.3s" fill="freeze"/>
            <rect width="64" height="30" rx="15" fill="rgba(16,185,129,0.08)" stroke="#10B981" stroke-width="1" filter="url(#softGlow)"><animate attributeName="stroke-opacity" values="0.4;1;0.4" dur="3s" begin="2.4s" repeatCount="indefinite"/></rect>
            <text x="32" y="20" text-anchor="middle" fill="#047857">AWS</text>
          </g>
        </g>
        <g transform="translate(746,394)">
          <g opacity="0"><animate attributeName="opacity" values="0;1" begin="4.15s" dur="0.3s" fill="freeze"/>
            <rect width="58" height="30" rx="15" fill="rgba(37,99,235,0.08)" stroke="#2563EB" stroke-width="1" filter="url(#softGlow)"><animate attributeName="stroke-opacity" values="0.4;1;0.4" dur="3s" begin="2.7s" repeatCount="indefinite"/></rect>
            <text x="29" y="20" text-anchor="middle" fill="#4338CA">Git</text>
          </g>
        </g>
        <g transform="translate(814,394)">
          <g opacity="0"><animate attributeName="opacity" values="0;1" begin="4.2s" dur="0.3s" fill="freeze"/>
            <rect width="98" height="30" rx="15" fill="rgba(6,182,212,0.08)" stroke="#06B6D4" stroke-width="1" filter="url(#softGlow)"><animate attributeName="stroke-opacity" values="0.4;1;0.4" dur="3s" begin="3.0s" repeatCount="indefinite"/></rect>
            <text x="49" y="20" text-anchor="middle" fill="#0E7490">Spring Boot</text>
          </g>
        </g>
        <g transform="translate(922,394)">
          <g opacity="0"><animate attributeName="opacity" values="0;1" begin="4.25s" dur="0.3s" fill="freeze"/>
            <rect width="94" height="30" rx="15" fill="rgba(16,185,129,0.08)" stroke="#10B981" stroke-width="1" filter="url(#softGlow)"><animate attributeName="stroke-opacity" values="0.4;1;0.4" dur="3s" begin="3.3s" repeatCount="indefinite"/></rect>
            <text x="47" y="20" text-anchor="middle" fill="#047857">MongoDB</text>
          </g>
        </g>
      </g>

      <!-- divider -->
      <rect x="484" y="452" width="640" height="1" fill="rgba(15,23,42,0.08)" opacity="0">
        <animate attributeName="opacity" values="0;1" begin="4.4s" dur="0.4s" fill="freeze"/>
      </rect>

      <!-- socials -->
      <g opacity="0">
        <animate attributeName="opacity" values="0;1" begin="4.6s" dur="0.5s" fill="freeze"/>
        <g transform="translate(484,478)">
          <circle r="20" cx="20" cy="20" fill="rgba(15,23,42,0.035)" stroke="#2563EB" stroke-width="1" filter="url(#softGlow)">
            <animate attributeName="stroke-opacity" values="0.5;1;0.5" dur="3s" repeatCount="indefinite"/>
          </circle>
          <path transform="translate(9,9) scale(0.9)" fill="#4338CA" d="M11 0C4.9 0 0 4.9 0 11c0 4.9 3.2 9.1 7.6 10.5.6.1.8-.2.8-.6v-2.2c-3.1.7-3.8-1.5-3.8-1.5-.5-1.3-1.2-1.7-1.2-1.7-1-.7.1-.6.1-.6 1.1.1 1.7 1.1 1.7 1.1 1 1.7 2.6 1.2 3.2.9.1-.7.4-1.2.7-1.5-2.5-.3-5.1-1.2-5.1-5.5 0-1.2.4-2.2 1.1-3-.1-.3-.5-1.4.1-3 0 0 .9-.3 3 1.1.9-.2 1.8-.4 2.7-.4.9 0 1.8.1 2.7.4 2.1-1.4 3-1.1 3-1.1.6 1.6.2 2.7.1 3 .7.8 1.1 1.8 1.1 3 0 4.3-2.6 5.2-5.1 5.5.4.3.8 1 .8 2v3c0 .4.2.7.8.6C18.8 20.1 22 15.9 22 11 22 4.9 17.1 0 11 0z"/>
          <text x="20" y="55" text-anchor="middle" font-size="10" fill="#94A3B8">GitHub</text>
        </g>
        <g transform="translate(564,478)">
          <circle r="20" cx="20" cy="20" fill="rgba(15,23,42,0.035)" stroke="#06B6D4" stroke-width="1" filter="url(#softGlow)">
            <animate attributeName="stroke-opacity" values="0.5;1;0.5" dur="3s" begin="0.5s" repeatCount="indefinite"/>
          </circle>
          <path transform="translate(10,10) scale(0.85)" fill="#0E7490" d="M19 0H1a1 1 0 00-1 1v18a1 1 0 001 1h18a1 1 0 001-1V1a1 1 0 00-1-1zM6 17H3V7h3v10zM4.5 5.7a1.7 1.7 0 110-3.4 1.7 1.7 0 010 3.4zM17 17h-3v-5.4c0-1.3-.5-2.1-1.6-2.1-.9 0-1.4.6-1.6 1.2-.1.2-.1.5-.1.8V17h-3s.1-9 0-10h3v1.4c.4-.6 1.1-1.5 2.8-1.5 2 0 3.5 1.3 3.5 4.2V17z"/>
          <text x="20" y="55" text-anchor="middle" font-size="10" fill="#94A3B8">LinkedIn</text>
        </g>
        <g transform="translate(644,478)">
          <circle r="20" cx="20" cy="20" fill="rgba(15,23,42,0.035)" stroke="#10B981" stroke-width="1" filter="url(#softGlow)">
            <animate attributeName="stroke-opacity" values="0.5;1;0.5" dur="3s" begin="1s" repeatCount="indefinite"/>
          </circle>
          <path transform="translate(9,10) scale(0.85)" fill="#047857" d="M22 2.6c-.8.3-1.6.6-2.5.7.9-.5 1.6-1.4 1.9-2.4-.8.5-1.8.9-2.7 1.1A4.3 4.3 0 0015.4 0c-2.4 0-4.3 2-4.3 4.4 0 .3 0 .7.1 1C7.7 5.2 4.1 3.3 1.7.3c-.4.7-.6 1.4-.6 2.3 0 1.5.8 2.8 1.9 3.6-.7 0-1.4-.2-2-.6v.1c0 2.1 1.5 3.9 3.5 4.3-.4.1-.8.1-1.1.1-.3 0-.5 0-.8-.1.5 1.7 2.1 3 4 3A8.6 8.6 0 010 19.5 12.1 12.1 0 006.6 21c7.9 0 12.2-6.6 12.2-12.2v-.6c.8-.6 1.5-1.4 2.1-2.3z"/>
          <text x="20" y="55" text-anchor="middle" font-size="10" fill="#94A3B8">Twitter</text>
        </g>
        <g transform="translate(724,478)">
          <circle r="20" cx="20" cy="20" fill="rgba(15,23,42,0.035)" stroke="#2563EB" stroke-width="1" filter="url(#softGlow)">
            <animate attributeName="stroke-opacity" values="0.5;1;0.5" dur="3s" begin="1.5s" repeatCount="indefinite"/>
          </circle>
          <path transform="translate(9,9)" fill="#4338CA" d="M11 0a11 11 0 100 22 11 11 0 000-22zM2.2 8.4h3.3c.2-1.5.5-2.9 1-4.1a9.1 9.1 0 00-4.3 4.1zm-.6 3.1c0 .7.1 1.4.2 2.1h3.6a17 17 0 01-.1-2.1c0-.7 0-1.4.1-2.1H1.8c-.1.7-.2 1.4-.2 2.1zm.6 3.6a9.1 9.1 0 004.3 4.1c-.5-1.2-.8-2.6-1-4.1H2.2zM11 20.3c.9-1 1.7-2.7 2.1-4.8H8.9c.4 2.1 1.2 3.8 2.1 4.8zM8.6 13.6h4.8c.1-.7.1-1.4.1-2.1 0-.7 0-1.4-.1-2.1H8.6c-.1.7-.1 1.4-.1 2.1 0 .7 0 1.4.1 2.1zm.3-6.4h4.2c-.4-2.1-1.2-3.8-2.1-4.8-.9 1-1.7 2.7-2.1 4.8zm6.1 0h3.3a9.1 9.1 0 00-4.3-4.1c.5 1.2.8 2.6 1 4.1zm.6 3.1c.1.7.1 1.4.1 2.1 0 .7 0 1.4-.1 2.1h3.6c.1-.7.2-1.4.2-2.1 0-.7-.1-1.4-.2-2.1h-3.6zm-.6 6.7c-.2 1.5-.5 2.9-1 4.1a9.1 9.1 0 004.3-4.1h-3.3z"/>
          <text x="20" y="55" text-anchor="middle" font-size="10" fill="#94A3B8">Portfolio</text>
        </g>
      </g>
    </g>
  </g>

  <!-- outer border shimmer -->
  <rect x="1" y="1" width="1178" height="608" rx="25" fill="none" stroke="rgba(15,23,42,0.06)" stroke-width="1"/>
  <rect x="1" y="1" width="1178" height="608" rx="25" fill="none" stroke="url(#borderShimmer)" stroke-width="1.6" opacity="0.7"/>
</g>
</svg>
